# xmcd
#
# Track frame offsets: 
#        150
#        10787
#        31215
#        45290
#        60058
#        75912
#        94106
#        103953
#        117241
#        126413
#        136276
#        148423
#        166824
#        182459
#        194399
#        208362
#        220199
#        231509
#        244370
#        260502
#        274669
#        288752
#        303624
#        321518
#        336533
#
# Disc length: 4719 seconds
#
# Revision: 0
# Processed by: cddbd v1.5.2PL0 Copyright (c) Steve Scherf et al.
# Submitted via: ExactAudioCopy v1.0b3
#
DISCID=77126d19
DTITLE=Edith Piaf - Greatest Hits [CD1)
DYEAR=2008
DGENRE=chanson
TTITLE0=Non, Je Ne Regrette Rien
TTITLE1=Milord
TTITLE2=La Vie en Rose
TTITLE3=Padam Padam
TTITLE4=Sous le Ciel de Paris
TTITLE5=L' Accordeoniste
TTITLE6=Johnny Tu N'Es Pas un Ange
TTITLE7=La Foule
TTITLE8=La Goualante du Pauvre Jean
TTITLE9=C'est un Homme Terrible
TTITLE10=Une Dame
TTITLE11=T'Es Beau Tu Sais
TTITLE12=Les Mots D'Amour
TTITLE13=Cri du Coeur
TTITLE14=Bravo Pour le Clown!
TTITLE15=Toi Tu l'Entends Pas
TTITLE16=Les Flons Flons Du Bal
TTITLE17=Mon Vieux Lucien
TTITLE18=Le Droit d'Aimer
TTITLE19=Mon Manege a Moi (Tu Me Fais Tourner La Tete)
TTITLE20=Notre Dame de Paris
TTITLE21=C'est un Gars
TTITLE22=Toi Qui Sais
TTITLE23=Je Hais Les Dimanches
TTITLE24=Mon Legionnaire
EXTD=
EXTT0=
EXTT1=
EXTT2=
EXTT3=
EXTT4=
EXTT5=
EXTT6=
EXTT7=
EXTT8=
EXTT9=
EXTT10=
EXTT11=
EXTT12=
EXTT13=
EXTT14=
EXTT15=
EXTT16=
EXTT17=
EXTT18=
EXTT19=
EXTT20=
EXTT21=
EXTT22=
EXTT23=
EXTT24=
PLAYORDER=
